<?xml version="1.0" encoding="UTF-8"?>
<svg id="Layer_1" data-name="Layer 1" xmlns="http://www.w3.org/2000/svg" viewBox="0 0 3440.75 2900.32">
  <defs>
    <style>
      .cls-1 {
        fill: #1e98d7;
        fill-rule: evenodd;
        stroke-width: 0px;
      }
    </style>
  </defs>
  <path class="cls-1" d="M1319.86,1956.62c-25.37,33.59-51.76,76.52-61.02,114.75l-3.48,14.36-.35-.11c-11.85,48.22-14,110,35.1,137.02,5.66,3.11,11.67,5.54,17.86,7.34,21.69,6.3,45.67,6.05,67.62,1.14,20.53-4.59,41.45-13.84,56.98-28.27,4.26-3.96,8.03-8.41,11.11-13.35,9.05-14.55,10.5-30.8,6.72-47.3-5.97-26.08-24.34-50.92-42.21-70.15-32.76-35.26-63.35-74.12-88.33-115.43M1018.93,771.37c16.72-33.98,39.09-64.51,66.34-90.84,62.64-60.53,145.13-94.1,230.91-104.42,93.55-11.25,188.87,4.97,277.22,36.11,54.74,6.44,103.72,27.05,142.99,66.21,42.09,41.97,65.21,97.69,77.49,155.04l.09.42c4.04,15.53,11.28,29.26,22.57,40.73,12.43,12.63,28.56,21.42,45.14,27.69l.6-1.22,12.54,6.11c37.23,18.14,73.37,38.16,109.54,58.29,34.71,19.33,69.31,38.35,105.05,55.76,22.64,11.03,32.73,38.05,22.94,61.17-24.96,73.97-60.88,154.75-116.49,211.02-39.87,40.33-85.81,64.15-141.51,74.05-47.26,8.4-95.77,6.01-143.46,3.73-80.76-3.86-156.31-6.78-222.28,49.21-56.3,47.79-101.15,115.49-127.34,184.25-21.6,56.69-32.15,118.2-25.35,178.61,26.33-22.1,54.2-42.38,83.35-60.6,127.73-79.89,272.64-117.24,422.96-115.75,26.14.26,47.17,21.59,46.96,47.74-.05,6.9-1.6,13.62-4.47,19.74l1.62,1.47-9.43,10.35c-11.04,12.11-57.18,62.45-53.54,81,2.7,13.73,48.6,45.61,59.78,53.78,26.28,19.2,52.14,42.08,72.89,67.18,17.48,21.16,34.43,48.14,38.13,75.86l2.21.35-2.35,13.98c-4.25,25.26-8.82,56.1-4.42,81.52,3.47,20.06,13.12,35.12,28.59,48.33,8.4,7.17,13.9,16.96,15.83,27.56l2.23.26-1.74,14c-9.3,74.7-41.38,137.65-111.51,170.41-42.56,19.88-91,24-137.56,21.2-5,33.53-3.49,67.76,6.9,100.26,9.55,29.88,26.21,56.65,48.88,78.32,23.08,22.06,51.26,37.77,81.84,46.74,48.55,14.25,100.34,10.88,148.2-4.42,232.25-74.28,435.04-221.48,578.59-418.25,143.83-197.14,220.11-432.8,220.11-676.79,0-305.88-120.37-596.45-336.63-812.71-216.26-216.26-506.83-336.63-812.71-336.63-264.54,0-518.69,89.78-724.07,256.57-204.94,166.44-347.28,398.32-401.19,657.11-1.02,4.88-3.44,17.29-4.83,28.94,14-8.58,28.52-20.44,38.62-28.94,27.18-22.88,52.82-48.41,77.18-74.25,28.32-30.03,55.45-61.29,81.61-93.21,27.87-34.01,54.78-68.95,80.32-104.74,21.44-30.04,42.41-61.12,60.87-93.1,17.74-35.15,40.35-68.75,69.8-95.17ZM1096.13,831.14c-12.2,30.95-17.86,63.99-18.17,97.23-.78,82.4,30.34,164.4,74.9,232.72,11.22,15.2,26.02,28.86,43.77,35.91,11.31,4.5,23.84,6.14,35.79,3.34,11.19-2.62,20.66-9.03,27.94-17.85,11.22-13.58,16.72-31.58,18.94-48.8,8.45-65.72,15.25-142.68,2.97-207.85-8.86-47.05-29.13-92.12-78.71-106.09-34.36-9.68-70.07-10.92-101.67,7.76-1.95,1.15-3.87,2.36-5.75,3.63ZM1956.37,2160.57c-21.61-24.39-34.7-52.19-40.31-84.64-5.91-34.14-2.52-69.56,2.84-103.6-3.38-7.89-11.17-17.79-16-23.63-15.78-19.09-35.53-36.55-55.52-51.15-32.16-23.49-72.99-51.85-89.84-89.12-3.33-7.37-5.78-15.04-7.33-22.97-5.49-27.93,1.6-54.22,13.97-78.5-97.7,11.88-190.84,43.79-274.73,96.25-36.65,22.92-71.14,49.43-102.6,79.09,3.27,6.32,6.71,12.56,10.29,18.71,22.25,38.18,50.46,74.1,80.52,106.45,30.04,32.33,56.96,71.41,67.3,114.92,8.02,33.78,5.2,68-9.89,99.41-9.2,19.16-22.34,36.09-37.88,50.53-27.88,25.91-64.11,43.05-101.08,51.31-37.38,8.36-77.65,8.08-114.51-2.63-19.91-5.78-38.96-14.42-56.04-26.22-32.98-22.78-55.16-54.89-65.81-93.47-13.74-49.74-6.86-104.05,7.17-152.93,7.49-30.44,22.31-61.42,37.91-88.45,20.12-34.85,44.4-67.81,70.91-98.14-3.74-11.76-6.86-23.73-9.21-35.84-16.65-85.66-4.85-173.97,26.03-255.04,31.82-83.52,86.41-164.85,154.75-222.85,42.75-36.28,90.01-58.41,145.22-67.84,47.43-8.1,95.05-5.97,142.84-3.69,36.62,1.75,74.53,3.76,110.82-2.48,38.74-6.66,70.89-22.2,99.53-49.32,38.24-36.21,64.85-88.16,84.1-137.36-24.05-12.62-47.79-25.82-71.53-39.03-34.04-18.96-67.99-37.63-103-54.76-32.26-11.23-62.22-27.97-86.33-52.45-23.3-23.66-38.68-52-46.91-84.12-.37-1.25-.7-2.51-.97-3.79-8.24-38.48-23.16-79.25-51.57-107.57-24.86-24.79-56.72-36.29-91.26-39.7l-14.16-1.4.24-2.12c-75.24-26.8-157.13-41.63-236.95-32.03-49.67,5.98-98.54,21.73-140.13,49.4,14.17,1.79,28.2,4.76,41.95,8.64,87.85,24.74,130.14,94.3,146.27,179.94,14.26,75.7,7.59,161.16-2.19,237.28-4.55,35.36-16.9,69.65-39.78,97.35-20.62,24.96-47.98,42.39-79.52,49.78-30.86,7.23-62.96,3.94-92.3-7.72-31.6-12.56-58.48-34.03-79.62-60.38l-.75.45-7.37-11.26c-44.93-68.61-77.39-147.71-87.45-229.56-33.13,48.73-69.46,96.13-106.58,141.33-27.78,33.83-56.6,66.97-86.65,98.8-26.27,27.81-53.88,55.23-83.15,79.88-24.57,20.69-56.06,44.35-86.65,54.95-42.95,14.9-80.44,5.99-99.69-37.82-13.91-31.66-8.07-76.18-1.25-108.9,58.35-280.13,212.38-531.17,434.24-711.34,222.32-180.55,497.44-278.01,783.85-278.01,331.14,0,645.77,130.35,879.88,364.46,234.11,234.11,364.46,548.74,364.46,879.88,0,264.13-82.89,519.18-238.57,732.56-155.42,213.02-375.01,372.33-626.44,452.75-65.95,21.09-136.83,24.74-203.61,5.14-45.09-13.23-86.52-36.56-120.52-69.07-34.22-32.72-59.32-73.21-73.74-118.29-20.17-63.08-17.81-129.64.47-192.48,6.09-23.18,28.63-38.23,52.39-34.88,39.58,5.58,90.8,8.75,127.95-8.6,30.87-14.42,46.12-42.39,53.48-74.06ZM1575.55,2582.96c25.83,4.03,43.55,28.21,39.55,54.05-4,25.85-28.22,43.59-54.07,39.56-266.07-41.52-509.98-167.81-697.83-360.66-187.71-192.7-308.63-440.98-343.07-707.99-3.35-25.94,15.12-49.69,41.05-52.97,25.92-3.28,49.59,15.12,52.94,41.02,31.81,246.63,143.69,475.86,317.04,653.82,173.49,178.11,398.66,294.82,644.4,333.17Z"/>
</svg>