<?xml version="1.0" encoding="UTF-8"?>
<svg id="_ÎÓÈ_1" data-name="—ÎÓÈ_1" xmlns="http://www.w3.org/2000/svg" viewBox="0 0 2000 1500">
  <defs>
    <style>
      .cls-1 {
        fill: none;
        stroke: #000;
        stroke-linecap: round;
        stroke-linejoin: round;
        stroke-width: 12px;
      }
    </style>
  </defs>
  <path class="cls-1" d="M63,912c129-33,491.23-91.45,714.15,140.79,151.85,158.21-10.45,191.2-50.84,108.43-55.27-113.26-94.64-223.07-41.31-355.23,20.56-50.95,73.47-122.42,92.08-172.53,10.95-29.5-7.7-104.13-44.35-96.28-33.91,7.26-87.79,68.32-170.37-14.83-67.69-68.16-27.06-86.25,57.71-116.74,99.31-35.72,29.49-87.71,130.81-132.32,15.38-6.77,37.07-10.83,61.09-12.41,8.56-.57,32.32-15.94,41.29-15.89,56.14.31,112.7,40.84,133.75,62,57.63,57.94-50.09,47.82-79,149-34,119-57.95,89.21-86-126-6.07-46.59,7.65-65.28,60.85-49.48,217.32,64.52,291.91,426.56,191.43,605.49-16.81,29.94-61.99,22.41-68.11-11.37-33.43-184.42,143.57-370.81,208.17-398.78-18.9,62,11.38,79.02-36.25,81-33.68,1.4-59.73-126.27,52.17-179.96-4.54,181.47,116.75,60.36,156.19,171.31,3.51,9.89,10.61,32.62,17.45,40.97,8.92,10.87,30.87,19.66,30.27,30.44-1,18.26,1.56,10.16-1.94,31-10.12,60.19-84.87,72.08-96.55,19.3-1.67-7.54-4.09-17.2.42-26.62,18.6-38.9,69.54-24.75,74.9-1.29,8,35-48.68,66.4-96.88,63.87-32.23-1.7-8.49,79.71,8.09,107.11,19.8,32.73,79.57,149.85-30.99,291.39-69.22,88.63-128.13-17.7,5.44-107.06,181.33-121.31,427.33,63.69,688.33,47.69"/>
</svg>