<?xml version="1.0" encoding="UTF-8"?>
<svg id="Layer_1" data-name="Layer 1" xmlns="http://www.w3.org/2000/svg" viewBox="0 0 3421.21 2900.32">
  <defs>
    <style>
      .cls-1 {
        fill: #fefefe;
        fill-rule: evenodd;
      }

      .cls-1, .cls-2 {
        stroke-width: 0px;
      }

      .cls-2 {
        fill: #f59a23;
      }
    </style>
  </defs>
  <rect class="cls-2" width="3421.21" height="2900.32"/>
  <path class="cls-1" d="M1298.78,1963.21c-25.37,33.59-51.76,76.52-61.02,114.75l-3.47,14.36-.35-.11c-11.85,48.21-14.01,109.99,35.09,137.01,5.66,3.11,11.67,5.54,17.86,7.34,21.69,6.3,45.67,6.05,67.62,1.15,20.53-4.59,41.45-13.84,56.98-28.27,4.26-3.96,8.04-8.41,11.1-13.35,9.05-14.55,10.5-30.8,6.72-47.3-5.97-26.08-24.34-50.92-42.21-70.15-32.76-35.26-63.35-74.12-88.33-115.43M1075.06,837.73c-12.2,30.95-17.85,63.99-18.17,97.23-.78,82.4,30.34,164.4,74.9,232.72,11.23,15.2,26.02,28.86,43.77,35.92,11.32,4.5,23.84,6.14,35.79,3.34,11.19-2.62,20.66-9.03,27.94-17.84,11.22-13.58,16.72-31.58,18.94-48.8,8.45-65.72,15.25-142.68,2.97-207.85-8.86-47.04-29.13-92.12-78.71-106.08-34.36-9.68-70.07-10.92-101.67,7.75-1.95,1.15-3.87,2.37-5.75,3.63ZM2086.41,2525.79c1.7-.85,3.47-1.6,5.31-2.25,221.61-78.71,413.67-225.16,549.12-417.12,135.69-192.3,207.43-419.91,207.43-655.22,0-302.78-119.15-590.4-333.21-804.46-214.06-214.06-501.68-333.21-804.46-333.21-240.83,0-473.43,75.17-668.25,216.78-194.43,141.34-340.32,341.04-414.4,570.01-8.05,24.88-34.68,38.61-59.6,30.61-24.92-8-38.7-34.72-30.63-59.65,80.28-248.12,238.2-464.63,448.92-617.8,211.05-153.41,463.07-234.96,723.97-234.96,328.03,0,639.71,129.13,871.62,361.04,231.92,231.91,361.04,543.59,361.04,871.63,0,254.93-77.86,501.52-224.85,709.84-146.79,208.02-354.93,366.67-595.08,451.96-1.97.7-3.96,1.26-5.94,1.68-1.95.93-3.98,1.74-6.1,2.42-39.32,12.55-80.36,20.04-121.65,21.18-37.62,1.04-75.56-3.19-111.71-13.8-40.59-11.91-78.69-31.75-110.2-60.17-31.86-28.73-55.07-64.55-68.16-105.48-18.27-57.13-14.6-117.43,1.89-174.12,6.09-23.18,28.62-38.23,52.39-34.88,39.58,5.58,90.8,8.75,127.95-8.6,30.87-14.42,46.12-42.39,53.48-74.06-21.61-24.39-34.7-52.18-40.31-84.64-5.91-34.14-2.52-69.56,2.84-103.6-3.38-7.89-11.17-17.79-16-23.63-15.78-19.09-35.53-36.55-55.53-51.15-32.16-23.49-72.99-51.85-89.84-89.12-3.33-7.36-5.78-15.04-7.34-22.97-5.49-27.93,1.6-54.22,13.97-78.5-97.71,11.88-190.84,43.79-274.72,96.25-36.65,22.92-71.14,49.43-102.6,79.09,3.26,6.32,6.71,12.55,10.29,18.7,22.25,38.18,50.46,74.1,80.52,106.45,30.04,32.34,56.96,71.42,67.29,114.92,8.02,33.79,5.2,68-9.88,99.41-9.2,19.16-22.34,36.09-37.88,50.53-27.88,25.91-64.11,43.05-101.07,51.31-37.38,8.36-77.65,8.08-114.51-2.63-19.91-5.78-38.96-14.42-56.04-26.22-32.98-22.79-55.16-54.89-65.81-93.48-13.74-49.74-6.86-104.05,7.17-152.93,7.49-30.44,22.31-61.43,37.91-88.46,20.12-34.85,44.4-67.81,70.91-98.14-3.74-11.77-6.85-23.73-9.21-35.85-16.65-85.66-4.85-173.97,26.03-255.03,31.82-83.52,86.41-164.85,154.75-222.85,42.75-36.28,90.01-58.41,145.22-67.84,47.43-8.1,95.05-5.98,142.84-3.69,36.62,1.75,74.53,3.76,110.82-2.48,38.74-6.67,70.89-22.2,99.53-49.32,38.23-36.21,64.85-88.16,84.1-137.37-24.06-12.62-47.79-25.82-71.53-39.03-34.05-18.95-67.99-37.62-103.01-54.76-32.25-11.23-62.22-27.97-86.33-52.45-23.29-23.66-38.68-52.01-46.9-84.12-.37-1.25-.7-2.51-.97-3.79-8.24-38.48-23.16-79.25-51.56-107.57-24.87-24.79-56.73-36.3-91.26-39.71l-14.16-1.4.24-2.12c-75.24-26.8-157.13-41.63-236.95-32.03-49.67,5.98-98.54,21.73-140.14,49.4,14.17,1.79,28.21,4.76,41.96,8.64,87.85,24.74,130.14,94.3,146.27,179.93,14.26,75.7,7.59,161.16-2.19,237.28-4.55,35.35-16.9,69.65-39.78,97.35-20.62,24.96-47.98,42.39-79.52,49.78-30.85,7.23-62.96,3.94-92.3-7.72-31.6-12.56-58.48-34.03-79.62-60.38l-.75.45-7.37-11.26c-44.14-67.41-76.22-144.89-86.89-225.18-30.89,46.32-66.2,88.85-105.92,128.48-41,40.91-85.13,76.95-130.24,113.1-28.29,22.68-57.28,45.56-83.27,70.88-21.74,21.17-41.85,44.74-55.25,72.17-11.12,22.78-16.75,46.53-17.56,71.84-.08,2.45-.34,4.84-.78,7.18,1.93,288.35,111.82,562.84,309.82,772.78,199.52,211.55,470.68,338.63,761.19,355.32,26.03,1.5,46.14,23.89,44.71,49.94-1.43,26.06-23.9,46.25-49.98,44.75-314.82-18.09-608.74-155.74-824.97-385-216.4-229.44-335.8-530.09-335.8-845.52,0-4.13.53-8.14,1.52-11.97,8.06-131.06,94.15-198.69,190.97-276.3,46.36-37.17,91.51-74.1,132.9-116.94,49.89-51.64,91.2-108.32,124.29-172.11.3-.59.61-1.16.94-1.74,17.66-34.79,40.12-68.01,69.3-94.18,16.72-33.98,39.09-64.5,66.34-90.84,62.64-60.53,145.13-94.1,230.9-104.42,93.55-11.26,188.87,4.97,277.22,36.11,54.74,6.44,103.71,27.05,142.99,66.21,42.09,41.97,65.21,97.69,77.49,155.04l.09.42c4.04,15.53,11.28,29.26,22.57,40.73,12.43,12.63,28.56,21.42,45.13,27.69l.6-1.22,12.54,6.11c37.24,18.14,73.37,38.15,109.55,58.29,34.71,19.33,69.31,38.35,105.04,55.75,22.64,11.03,32.73,38.05,22.94,61.17-24.96,73.97-60.88,154.75-116.49,211.02-39.86,40.33-85.81,64.15-141.51,74.05-47.25,8.4-95.77,6.01-143.46,3.73-80.76-3.86-156.31-6.78-222.28,49.21-56.3,47.78-101.14,115.49-127.34,184.25-21.59,56.69-32.15,118.2-25.35,178.61,26.33-22.1,54.2-42.37,83.35-60.6,127.73-79.89,272.64-117.24,422.96-115.75,26.13.26,47.17,21.59,46.96,47.74-.05,6.9-1.6,13.62-4.48,19.74l1.62,1.47-9.43,10.35c-11.04,12.11-57.18,62.45-53.54,81,2.7,13.73,48.6,45.62,59.79,53.78,26.28,19.2,52.14,42.08,72.89,67.18,17.48,21.16,34.43,48.14,38.13,75.86l2.21.34-2.35,13.98c-4.25,25.26-8.82,56.1-4.42,81.52,3.47,20.06,13.12,35.12,28.59,48.33,8.4,7.17,13.9,16.96,15.83,27.56l2.23.26-1.74,14c-9.3,74.7-41.38,137.64-111.51,170.4-42.53,19.87-90.95,23.99-137.48,21.2-3.89,27.35-3.06,55.42,5.4,81.89,7.93,24.79,22.12,46.25,41.39,63.64,20.92,18.86,46.51,31.8,73.43,39.7,57.69,16.93,121.26,11.44,177.97-6.66,1.25-.4,2.51-.74,3.78-1.04Z"/>
</svg>